<svg width="420" height="300" viewBox="0 0 420 300" fill="none" xmlns="http://www.w3.org/2000/svg">
  <defs>
    <linearGradient id="bg" x1="0" y1="0" x2="1" y2="1">
      <stop offset="0%" stop-color="#e4f4ed" />
      <stop offset="100%" stop-color="#cde9dc" />
    </linearGradient>
    <linearGradient id="leaf" x1="0" y1="0" x2="1" y2="1">
      <stop offset="0%" stop-color="#1f7a58" />
      <stop offset="100%" stop-color="#3cb371" />
    </linearGradient>
  </defs>
  <rect width="420" height="300" rx="28" fill="url(#bg)" />
  <circle cx="330" cy="60" r="40" fill="rgba(31, 122, 88, 0.12)" />
  <circle cx="80" cy="240" r="55" fill="rgba(31, 122, 88, 0.12)" />
  <path d="M210 220C170 190 150 150 165 110C175 80 200 60 230 60C260 60 285 80 295 110C310 150 290 190 250 220" fill="url(#leaf)" />
  <path d="M210 215V120" stroke="#0b3b2e" stroke-width="6" stroke-linecap="round" />
  <path d="M210 150C190 135 175 120 170 100" stroke="#0b3b2e" stroke-width="6" stroke-linecap="round" />
  <path d="M210 165C235 150 255 130 260 110" stroke="#0b3b2e" stroke-width="6" stroke-linecap="round" />
  <text x="210" y="265" text-anchor="middle" font-family="'Manrope', 'Segoe UI', sans-serif" font-size="16" fill="#0b3b2e">Microgreen Photo Placeholder</text>
</svg>
